<svg xmlns="http://www.w3.org/2000/svg" width="29" height="37" viewBox="0 0 29 37"><g><g><path fill="#b7c8ce" d="M24.909 13.796a3.241 3.241 0 0 1 3.237 3.237v16.758a3.242 3.242 0 0 1-3.237 3.237H3.58a3.242 3.242 0 0 1-3.237-3.237V17.033a3.241 3.241 0 0 1 3.237-3.237h1.333V9.417c0-5.145 4.186-9.33 9.33-9.33 5.146 0 9.332 4.185 9.332 9.33v4.38zM2.249 33.791c0 .734.598 1.332 1.332 1.332h21.328c.734 0 1.332-.598 1.332-1.332V17.033c0-.734-.598-1.332-1.332-1.332H3.58c-.734 0-1.332.598-1.332 1.332zm11.996-31.8c-4.095 0-7.426 3.331-7.426 7.426v4.38H21.67v-4.38c0-4.095-3.331-7.426-7.426-7.426z"/></g><g><path fill="#b7c8ce" d="M13 27.039a.959.959 0 0 0 .674.278h.04a.952.952 0 0 0 .688-.341l2.857-3.428a.954.954 0 0 0-.121-1.341.957.957 0 0 0-1.342.12l-2.187 2.628-.976-.977a.95.95 0 0 0-1.626.674c0 .254.099.493.279.673z"/></g><g><path fill="#b7c8ce" d="M10.035 30.934a2.081 2.081 0 0 1-2.074-2.085v-8.397c0-1.15.93-2.086 2.074-2.086h8.417c1.145 0 2.076.936 2.076 2.086v6.936c0 .56-.215 1.082-.605 1.474l-1.445 1.46c-.387.39-.924.612-1.472.612zm-.17-2.085c0 .1.076.181.17.181h6.971a.156.156 0 0 0 .114-.047l1.45-1.463a.184.184 0 0 0 .054-.132v-6.936c0-.1-.076-.18-.17-.18h-8.419c-.094 0-.17.08-.17.18z"/></g></g></svg>