<svg xmlns="http://www.w3.org/2000/svg" width="57" height="56" viewBox="0 0 57 56"><defs><clipPath id="9blma"><path d="M27.966 25.5v5.986h8.34c-.359 1.934-1.451 3.573-3.092 4.67v3.883h5.008c2.931-2.694 4.621-6.661 4.621-11.374a17.77 17.77 0 0 0-.282-3.165z"/></clipPath><clipPath id="9blmb"><path d="M14.117 31.254v4.009a15.494 15.494 0 0 0 13.849 8.525c4.184 0 7.692-1.386 10.256-3.749l-5.008-3.883c-1.388.929-3.163 1.478-5.248 1.478-4.037 0-7.452-2.723-8.671-6.38z"/></clipPath><clipPath id="9blmc"><path d="M14.117 21.364a15.458 15.458 0 0 0-1.647 6.949c0 2.498.598 4.861 1.647 6.95l5.178-4.009a9.29 9.29 0 0 1-.486-2.941c0-1.019.176-2.011.486-2.939v-4.01z"/></clipPath><clipPath id="9blmd"><path d="M14.117 21.364l5.178 4.01c1.219-3.658 4.634-6.38 8.671-6.38 2.275 0 4.318.781 5.925 2.314l4.444-4.438c-2.684-2.497-6.192-4.03-10.369-4.03a15.494 15.494 0 0 0-13.849 8.524z"/></clipPath></defs><g><g><path fill="#fff" d="M52.86 55.782H4.264a3.35 3.35 0 0 1-3.35-3.351V3.917A3.35 3.35 0 0 1 4.264.566H52.86a3.35 3.35 0 0 1 3.351 3.351v48.514a3.35 3.35 0 0 1-3.35 3.351z"/></g><g/><g clip-path="url(#9blma)"><path fill="#3e82f1" d="M22.8 22.062h32.095v31.732H22.8z"/></g><g/><g clip-path="url(#9blmb)"><path fill="#32a753" d="M5.508 22.657h41.323v29.728H5.508z"/></g><g/><g clip-path="url(#9blmc)"><path fill="#f9bb00" d="M5.582 12.768h24.044V43.86H5.582z"/></g><g/><g clip-path="url(#9blmd)"><path fill="#e74133" d="M8.952 4.243h41.436v29.728H8.952z"/></g></g></svg>