<svg xmlns="http://www.w3.org/2000/svg" width="34" height="23" viewBox="0 0 34 23"><g><g><path fill="#b7c8ce" d="M32.11.7c.935 0 1.7.765 1.7 1.699v18.688c0 .935-.766 1.7-1.7 1.7H2.38a1.705 1.705 0 0 1-1.7-1.7V2.399c0-.934.766-1.7 1.7-1.7zM3.018 1.974l13.25 9.939c.238.18.604.295.977.293.374.002.74-.112.978-.293l13.251-9.94zm21.378 10.595a.637.637 0 0 1 .99-.802l7.15 8.832V2.769l-13.55 10.163c-.509.38-1.13.547-1.74.548-.614-.001-1.233-.168-1.743-.548L1.954 2.77V20.6l7.15-8.833a.637.637 0 1 1 .991.802l-7.222 8.919c-.007.009-.016.016-.023.024h28.79c-.009-.008-.018-.015-.025-.024z"/></g></g></svg>