<svg xmlns="http://www.w3.org/2000/svg" width="31" height="31" viewBox="0 0 31 31"><g><g><path fill="#b7c8ce" d="M15.245.787c8.071 0 14.638 6.567 14.638 14.638a14.58 14.58 0 0 1-3.353 9.315c-.006.007-.006.017-.012.024a14.642 14.642 0 0 1-5.527 4.124l-.073.032c-.171.072-.344.14-.518.204-.069.026-.137.053-.206.078a18.471 18.471 0 0 1-.745.244c-.134.04-.269.08-.404.115-.119.032-.239.061-.359.091-.122.03-.244.058-.366.084-.137.03-.276.055-.414.081-.111.02-.222.042-.334.06-.154.025-.308.044-.464.064-.099.013-.199.028-.299.038-.176.02-.353.032-.531.044-.082.006-.164.015-.247.02a13.581 13.581 0 0 1-1.571-.001c-.083-.005-.166-.014-.248-.02a13.203 13.203 0 0 1-.53-.044c-.101-.01-.2-.025-.3-.038-.155-.02-.31-.039-.464-.064-.112-.018-.223-.04-.334-.06-.139-.026-.277-.05-.414-.08a14.855 14.855 0 0 1-1.421-.382c-.152-.049-.303-.1-.453-.153-.069-.025-.137-.052-.206-.078a15.019 15.019 0 0 1-.518-.204l-.072-.032a14.63 14.63 0 0 1-5.528-4.124c-.006-.007-.006-.017-.012-.024a14.57 14.57 0 0 1-3.354-9.314C.606 7.355 7.173.787 15.245.787zm5.932 26.944a13.743 13.743 0 0 0 4.426-3.412 10.77 10.77 0 0 0-7.048-7.387c-.069.041-.139.08-.209.118l-.123.07a6.24 6.24 0 0 1-.444.213c-.115.051-.235.094-.354.138l-.07.026a6.314 6.314 0 0 1-2.11.368 6.315 6.315 0 0 1-2.111-.368l-.07-.026c-.119-.044-.239-.087-.354-.138a6.24 6.24 0 0 1-.444-.214l-.123-.069c-.069-.039-.14-.077-.208-.118a10.77 10.77 0 0 0-7.048 7.387 13.732 13.732 0 0 0 4.426 3.413l.022.011c.174.084.352.163.53.24l.12.051a16.073 16.073 0 0 0 .674.26 11.792 11.792 0 0 0 1.075.334c.109.03.218.055.328.081a9.088 9.088 0 0 0 .725.152c.102.02.205.04.309.056.143.022.287.04.431.058.091.012.182.026.274.036.165.017.33.03.496.04.074.006.147.013.222.017a13.475 13.475 0 0 0 1.452 0c.075-.004.148-.012.222-.017.165-.012.331-.023.496-.04.092-.01.183-.024.274-.036.143-.018.288-.036.431-.058.104-.017.207-.037.31-.056.126-.023.254-.046.38-.072.116-.024.23-.052.345-.08a12.088 12.088 0 0 0 .71-.19l.267-.08c.143-.047.284-.095.426-.146l.199-.072c.159-.06.317-.122.473-.187l.121-.052c.179-.077.356-.156.53-.24l.022-.01zm-11.3-16.209a5.364 5.364 0 0 0 3.045 4.831l.073.036a5.495 5.495 0 0 0 4.572-.036 5.363 5.363 0 0 0 3.045-4.831 5.373 5.373 0 0 0-5.367-5.367 5.373 5.373 0 0 0-5.368 5.367zM26.335 23.39a13.586 13.586 0 0 0 2.572-7.965c0-7.533-6.129-13.662-13.662-13.662-7.534 0-13.663 6.13-13.663 13.662 0 2.971.956 5.721 2.573 7.965a11.76 11.76 0 0 1 6.854-7.16 6.324 6.324 0 0 1-2.108-4.708 6.35 6.35 0 0 1 6.344-6.343 6.35 6.35 0 0 1 6.343 6.343 6.323 6.323 0 0 1-2.107 4.708 11.758 11.758 0 0 1 6.854 7.16z"/></g><g><path fill="none" stroke="#b7c8ce" stroke-miterlimit="20" stroke-width=".6" d="M15.245.787c8.071 0 14.638 6.567 14.638 14.638a14.58 14.58 0 0 1-3.353 9.315c-.006.007-.006.017-.012.024a14.642 14.642 0 0 1-5.527 4.124l-.073.032c-.171.072-.344.14-.518.204-.069.026-.137.053-.206.078a18.471 18.471 0 0 1-.745.244c-.134.04-.269.08-.404.115-.119.032-.239.061-.359.091-.122.03-.244.058-.366.084-.137.03-.276.055-.414.081-.111.02-.222.042-.334.06-.154.025-.308.044-.464.064-.099.013-.199.028-.299.038-.176.02-.353.032-.531.044-.082.006-.164.015-.247.02a13.581 13.581 0 0 1-1.571-.001c-.083-.005-.166-.014-.248-.02a13.203 13.203 0 0 1-.53-.044c-.101-.01-.2-.025-.3-.038-.155-.02-.31-.039-.464-.064-.112-.018-.223-.04-.334-.06-.139-.026-.277-.05-.414-.08a14.855 14.855 0 0 1-1.421-.382c-.152-.049-.303-.1-.453-.153-.069-.025-.137-.052-.206-.078a15.019 15.019 0 0 1-.518-.204l-.072-.032a14.63 14.63 0 0 1-5.528-4.124c-.006-.007-.006-.017-.012-.024a14.57 14.57 0 0 1-3.354-9.314C.606 7.355 7.173.787 15.245.787zm5.932 26.944a13.743 13.743 0 0 0 4.426-3.412 10.77 10.77 0 0 0-7.048-7.387c-.069.041-.139.08-.209.118l-.123.07a6.24 6.24 0 0 1-.444.213c-.115.051-.235.094-.354.138l-.07.026a6.314 6.314 0 0 1-2.11.368 6.315 6.315 0 0 1-2.111-.368l-.07-.026c-.119-.044-.239-.087-.354-.138a6.24 6.24 0 0 1-.444-.214l-.123-.069c-.069-.039-.14-.077-.208-.118a10.77 10.77 0 0 0-7.048 7.387 13.732 13.732 0 0 0 4.426 3.413l.022.011c.174.084.352.163.53.24l.12.051a16.073 16.073 0 0 0 .674.26 11.792 11.792 0 0 0 1.075.334c.109.03.218.055.328.081a9.088 9.088 0 0 0 .725.152c.102.02.205.04.309.056.143.022.287.04.431.058.091.012.182.026.274.036.165.017.33.03.496.04.074.006.147.013.222.017a13.475 13.475 0 0 0 1.452 0c.075-.004.148-.012.222-.017.165-.012.331-.023.496-.04.092-.01.183-.024.274-.036.143-.018.288-.036.431-.058.104-.017.207-.037.31-.056.126-.023.254-.046.38-.072.116-.024.23-.052.345-.08a12.088 12.088 0 0 0 .71-.19l.267-.08c.143-.047.284-.095.426-.146l.199-.072c.159-.06.317-.122.473-.187l.121-.052c.179-.077.356-.156.53-.24l.022-.01zm-11.3-16.209a5.364 5.364 0 0 0 3.045 4.831l.073.036a5.495 5.495 0 0 0 4.572-.036 5.363 5.363 0 0 0 3.045-4.831 5.373 5.373 0 0 0-5.367-5.367 5.373 5.373 0 0 0-5.368 5.367zM26.335 23.39a13.586 13.586 0 0 0 2.572-7.965c0-7.533-6.129-13.662-13.662-13.662-7.534 0-13.663 6.13-13.663 13.662 0 2.971.956 5.721 2.573 7.965a11.76 11.76 0 0 1 6.854-7.16 6.324 6.324 0 0 1-2.108-4.708 6.35 6.35 0 0 1 6.344-6.343 6.35 6.35 0 0 1 6.343 6.343 6.323 6.323 0 0 1-2.107 4.708 11.758 11.758 0 0 1 6.854 7.16z"/></g></g></svg>