<svg xmlns="http://www.w3.org/2000/svg" width="78" height="19" viewBox="0 0 78 19"><g><g><path fill="#29b190" d="M21.356 1.027a.57.57 0 0 1-.056.25l-.049.086-4.988 8.636-4.984 8.636c-.002.002-.002.007-.004.009l-.022.034-.03.05a.573.573 0 0 1-.967-.043l-.006-.01-.02-.031-4.99-8.645-5.018-8.69a.569.569 0 0 1-.073-.282C.149.725.377.48.668.45h16.863L9.104 11.756c.2-.684 1.333-2.94 1.257-3.53-.092-.742-2.114-3.956-2.116-3.953H5.953l-.004.008a.57.57 0 0 0-.405.84l.006.01v.003l3.554 6.622h3.202L18.946.45h1.893c.291.03.517.275.517.577z"/></g><g><path fill="#515352" d="M27.517 2.466v10.91c0 .233-.295.466-.653.466-.374 0-.639-.233-.639-.466V2.466c0-.264.265-.451.64-.451.357 0 .652.187.652.45z"/></g><g><path fill="#515352" d="M31.781 3.695c0-.389-.358-.731-.793-.731-.452 0-.81.342-.81.731 0 .389.358.747.81.747.435 0 .793-.358.793-.747zm-.14 3.222c0-.265-.295-.451-.653-.451-.358 0-.639.186-.639.451v6.458c0 .234.281.467.64.467.357 0 .652-.233.652-.467z"/></g><g><path fill="#515352" d="M38.909 9.33c0-1.059-.747-1.79-1.618-1.79-.825 0-1.666.653-1.666 1.82v4.015c0 .234-.295.467-.653.467-.374 0-.638-.233-.638-.467V6.917c0-.265.264-.45.638-.45.327 0 .59.185.59.45v.638a2.333 2.333 0 0 1 2.07-1.183c.982 0 1.775.638 2.133 1.557.545-1.059 1.463-1.557 2.366-1.557 1.369 0 2.66 1.09 2.66 2.988v4.015c0 .234-.295.467-.653.467-.342 0-.638-.233-.638-.467V9.36c0-1.198-.84-1.82-1.634-1.82-.825 0-1.665.684-1.665 1.773v4.078c0 .311-.327.451-.654.451-.295 0-.638-.14-.638-.45z"/></g><g><path fill="#515352" d="M51.841 10.528h-3.408v.466c0 1.152.918 1.884 2.21 1.884 1.167 0 1.494-.607 1.883-.607.311 0 .529.358.529.59 0 .406-.949 1.106-2.459 1.106-2.023 0-3.454-1.214-3.454-3.02V9.315c0-1.588 1.384-2.942 3.096-2.942 1.588 0 2.989 1.199 2.989 2.864 0 1.245-.686 1.292-1.386 1.292zm-.529-.872c.545 0 .685-.093.685-.498A1.77 1.77 0 0 0 50.223 7.4c-.981 0-1.79.747-1.79 1.696v.56z"/></g><g><path fill="#515352" d="M54.845 7.244c-.016-.046-.062-.171-.062-.25 0-.31.482-.56.825-.56.187 0 .358.079.42.25l1.976 5.29 1.945-5.228c.079-.187.188-.311.42-.311.296 0 .84.249.84.56a.589.589 0 0 1-.061.249l-2.552 6.458c-.078.172-.343.28-.592.28-.28 0-.53-.092-.607-.28z"/></g><g><path fill="#515352" d="M64.416 7.555A2.38 2.38 0 0 1 66.5 6.372c1.557 0 2.802 1.354 2.802 2.988v1.587c0 1.572-1.276 3.02-2.74 3.02-.948 0-1.758-.576-2.085-1.214v4.186c0 .233-.295.467-.654.467-.373 0-.637-.234-.637-.467V6.917c0-.265.264-.452.622-.452.343 0 .607.187.607.452zM68.01 9.36c0-.918-.81-1.82-1.805-1.82-.856 0-1.728.684-1.728 1.82v2.007c0 .421.747 1.432 1.759 1.432.949 0 1.774-.918 1.774-1.852z"/></g><g><path fill="#515352" d="M73.006 13.376c0 .233-.312.467-.654.467-.373 0-.638-.234-.638-.467V6.918c0-.265.265-.452.638-.452.312 0 .592.187.592.452v.638c.311-.607 1.042-1.183 2.085-1.183 1.478 0 2.74 1.354 2.74 2.988v4.014c0 .311-.328.467-.655.467-.31 0-.638-.156-.638-.467V9.36c0-.919-.809-1.82-1.774-1.82-.84 0-1.696.684-1.696 1.82z"/></g></g></svg>