<svg xmlns="http://www.w3.org/2000/svg" width="78" height="28" viewBox="0 0 78 28"><g><g><path fill="#0ea2ef" d="M10.872 12.577c-.29-.193-.578-.385-.867-.482-.386-.096-.675-.192-1.06-.192H7.789v4.817h.963c.386 0 .77 0 1.156-.096.289-.097.675-.193.964-.386.289-.192.48-.48.578-.77.193-.386.193-.77.193-1.157 0-.385-.097-.674-.193-1.06-.193-.192-.386-.48-.578-.674z"/></g><g><path fill="#0ea2ef" d="M13.762.726c7.42 0 13.49 6.07 13.49 13.49 0 7.418-6.07 13.489-13.49 13.489-7.419 0-13.49-6.071-13.49-13.49 0-7.42 6.071-13.49 13.49-13.49zm-.578 15.512c.29-.578.385-1.156.29-1.83 0-.674-.098-1.35-.387-1.927-.289-.482-.578-.964-1.059-1.253-.482-.29-.964-.578-1.542-.674-.578-.096-1.157-.193-1.83-.193H5.956v8.19H9.04c.578 0 1.157-.096 1.735-.29.482-.191.964-.384 1.445-.77.386-.29.771-.771.964-1.253zm9.057-5.877h-1.83v5.685l-3.469-5.685h-2.409v8.19h1.831V12.77l3.564 5.78h2.313z"/></g><g><path fill="#0ea2ef" d="M32.744 9.494h7.034v1.831h-5.203v2.89h4.817v1.734h-4.817v4.529h-1.927zm8.672 1.831a1.307 1.307 0 0 1 0-1.639c.289-.192.578-.289.867-.289.289 0 .674.097.867.289l.096.097c.386.482.386 1.156-.096 1.542-.29.192-.578.289-.867.289-.385.096-.674-.097-.867-.289zm0 1.734h1.83v7.419h-1.83zm3.95 0H47.1v1.156c.193-.385.386-.674.77-.964.387-.289.965-.385 1.447-.385.385 0 .867.096 1.252.289.386.193.675.386.867.675.193.289.386.578.482.963.097.289.097.675.097 1.06v4.625h-1.831v-4.432c-.096-.193-.096-.482-.193-.675-.096-.192-.192-.385-.385-.578a1.823 1.823 0 0 0-.771-.192c-.29 0-.482.096-.771.192-.193.097-.385.193-.482.386-.096.192-.192.385-.29.578-.095.192-.095.481-.095.674v4.047h-1.83zm14.742 6.456c-.192.385-.578.77-1.06.963a3.864 3.864 0 0 1-1.445.289c-.578 0-1.06-.096-1.542-.289a2.639 2.639 0 0 1-1.156-.867c-.385-.385-.578-.771-.77-1.253a4.36 4.36 0 0 1-.29-1.542c0-.578.097-1.059.29-1.541.192-.482.48-.867.77-1.253.386-.385.77-.674 1.156-.867a3.864 3.864 0 0 1 1.446-.289c.385 0 .674 0 .964.096.192.097.48.193.674.289.096.097.289.29.482.386.192.096.289.289.385.385V8.819h1.83v11.659h-1.734zm-4.24-3.566c-.192.482-.192 1.06 0 1.638.097.193.193.482.386.675l.096.096c.868.868 2.217.771 3.084-.096.096-.193.289-.386.385-.675.193-.482.193-1.06 0-1.638-.096-.192-.192-.481-.385-.674l-.096-.096c-.867-.868-2.217-.771-3.084.096-.096.193-.29.385-.385.674zm9.443 1.446c.097.481.289.963.675 1.252.385.289.867.482 1.349.482a2.56 2.56 0 0 0 1.156-.289c.385-.193.674-.385.867-.675l1.349.964a4.258 4.258 0 0 1-1.445 1.156c-.482.289-1.06.386-1.638.386-.482 0-1.06-.097-1.542-.289-.482-.193-.867-.386-1.252-.771-.386-.385-.675-.771-.867-1.253-.386-.963-.386-2.12 0-3.179.192-.482.48-.868.867-1.253.385-.289.77-.578 1.252-.771a3.992 3.992 0 0 1 1.542-.289c.482 0 .963.096 1.445.289.385.193.77.386 1.06.771.289.385.482.771.675 1.253.192.578.289 1.156.289 1.734v.482zm3.854-1.349c0-.482-.096-.867-.481-1.253-.386-.385-.867-.482-1.35-.482-.481 0-.963.193-1.348.482-.29.289-.578.771-.578 1.253zm3.855-2.987h1.83v1.156c.193-.385.482-.674.868-.964.385-.289.867-.385 1.349-.385h.289c.096 0 .192.096.289.096v1.831c-.193 0-.29-.096-.482-.096h-.482c-.385-.096-.771 0-1.06.193l-.578.578-.29.578c-.095.192-.095.289-.095.481v3.951h-1.831z"/></g></g></svg>