<svg xmlns="http://www.w3.org/2000/svg" width="99" height="28" viewBox="0 0 99 28"><defs><linearGradient id="60dea" x1="23.83" x2="4.43" y1="4.32" y2="23.72" gradientUnits="userSpaceOnUse"><stop offset="0" stop-color="#00e2bc"/><stop offset="0" stop-color="#00e2bc"/><stop offset=".66" stop-color="#1d99e8"/><stop offset="1" stop-color="#6371dc"/></linearGradient></defs><g><g><path fill="url(#60dea)" d="M.407 14.001c.04 1.254.21 3.276 1.045 4.914.418-3.276 2.299-4.914 2.299-4.914 0-.837.103-1.649.295-2.428a10.13 10.13 0 0 1 2.19-4.201 10.462 10.462 0 0 1 3.056-2.414 10.578 10.578 0 0 1 4.907-1.197c5.772 0 10.45 4.585 10.45 10.24S20.18 24.65 14.409 24.65c-3.135 0-5.016-.82-6.687-2.048-2.508-2.048-1.255-4.506-1.255-4.506.419-1.228 2.332-3.176 4.598-1.228 2.925 2.867-1.253 4.915-1.253 4.915 1.253 1.638 3.761 1.229 3.761 1.229 2.09-2.048 2.217-4.647 1.671-6.144-1.254-4.506-7.232-5.089-9.612-3.277-4.441 3.38-2.926 7.782-1.91 9.201.99 1.396 2.453 2.696 4 3.496 1.919.994 4.156 1.229 6.477 1.229 7.619 0 13.793-6.052 13.793-13.516 0-7.465-6.174-13.516-13.793-13.516C6.583.485.17 6.539.407 14.001z"/></g><g><path fill="#383838" d="M31.536 15.471v-4.188h.526v4.212c0 1.24.766 1.983 1.97 1.983 1.215 0 1.992-.743 1.992-1.995v-4.2h.527v4.175c0 1.524-.978 2.515-2.52 2.515s-2.495-.99-2.495-2.502z"/></g><g><path fill="#383838" d="M39.56 11.283h1.98v.483h-1.98v4.027c0 1.214.664 1.66 1.603 1.66.188 0 .364-.012.565-.049v.47c-.075.013-.338.05-.627.05-1.204 0-2.069-.669-2.069-2.106v-4.052h-1.028v-.483h1.041V9.734h.514z"/></g><g><path fill="#383838" d="M43.144 11.283h.426l.051 1.227h.012c.401-.917 1.291-1.289 1.968-1.289.138 0 .289.012.401.024v.51a3.682 3.682 0 0 0-.401-.026c-.94 0-1.918.657-1.931 1.97v4.163h-.526z"/></g><g><path fill="#383838" d="M47.13 14.753c.088 1.697 1.166 2.725 2.671 2.725.802 0 1.655-.284 2.37-.954v.608a3.746 3.746 0 0 1-2.395.842c-1.869 0-3.172-1.313-3.172-3.382 0-2.132 1.48-3.42 3.084-3.42 1.48 0 2.745 1.115 2.745 3.27 0 .125-.012.236-.025.31zm4.777-.471c-.025-1.784-1.09-2.615-2.219-2.615-1.279 0-2.432.99-2.545 2.615z"/></g><g><path fill="#383838" d="M56.871 11.171c1.065 0 2.13.582 2.62 1.76l.075-1.648h.413v6.58h-.413l-.075-1.649a2.775 2.775 0 0 1-2.608 1.76c-1.58 0-3.047-1.302-3.047-3.396 0-2.106 1.468-3.407 3.036-3.407zm.05.508c-1.38 0-2.558 1.115-2.558 2.9 0 1.771 1.191 2.9 2.57 2.9 1.367 0 2.545-1.129 2.545-2.913 0-1.759-1.166-2.887-2.558-2.887z"/></g><g><path fill="#383838" d="M65.107 17.478c.527 0 1.216-.124 1.793-.545v.583c-.514.309-1.141.458-1.793.458-1.805 0-3.222-1.425-3.222-3.408 0-1.932 1.404-3.395 3.21-3.395.614 0 1.24.112 1.805.471v.583c-.59-.422-1.191-.545-1.818-.545-1.392 0-2.67 1.127-2.67 2.886 0 1.797 1.29 2.912 2.695 2.912z"/></g><g><path fill="#383838" d="M69.281 12.324h.013c.376-.72 1.203-1.152 2.106-1.152 1.43 0 2.357.83 2.357 2.329v4.362h-.527v-4.176c0-1.313-.664-2.007-1.868-2.007-1.09 0-2.08.62-2.08 1.895v4.288h-.527V8.012h.526z"/></g><g><path fill="#383838" d="M76.151 8.644h2.281c2.207 0 3.648 1.115 3.648 2.998 0 1.871-1.404 3.098-3.61 3.098h-1.154v3.122h-1.165zm2.381 1.078h-1.216v3.952h1.216c1.455 0 2.37-.743 2.37-2.007 0-1.251-.915-1.945-2.37-1.945z"/></g><g><path fill="#383838" d="M83.622 7.95h1.153v9.912h-1.153z"/></g><g><path fill="#383838" d="M86.819 15.285V11.16h1.153v4.151c0 1.028.615 1.635 1.605 1.635 1.015 0 1.655-.607 1.655-1.635v-4.15h1.153v4.125c0 1.611-1.066 2.726-2.808 2.726-1.73 0-2.758-1.115-2.758-2.726z"/></g><g><path fill="#383838" d="M98.578 11.593v1.127c-.49-.408-1.23-.693-2.031-.693-.852 0-1.33.359-1.33.904 0 .595.59.818 1.506 1.078 1.04.297 2.219.632 2.219 1.982 0 1.227-.966 2.02-2.533 2.02-.877 0-1.717-.248-2.344-.743V16.04a3.236 3.236 0 0 0 2.307.954c.915 0 1.44-.396 1.44-.991 0-.644-.638-.855-1.616-1.152-1.116-.335-2.106-.694-2.106-1.871 0-1.128.94-1.971 2.445-1.971.777 0 1.567.224 2.043.583z"/></g></g></svg>