<svg xmlns="http://www.w3.org/2000/svg" width="77" height="29" viewBox="0 0 77 29"><g><g><path fill="#a5ddf3" d="M14.904 1.501a13.197 13.197 0 0 1 9.485 4.797c.3-.148.604-.29.912-.423A14.166 14.166 0 0 0 14.904.52z"/></g><g><path fill="#0693e9" d="M14.56 27.913c-.125.003-.251.01-.377.01-7.221 0-13.086-5.79-13.215-12.981h-.98c.13 7.73 6.433 13.96 14.195 13.96.222 0 .443-.007.663-.017-.103-.321-.2-.644-.286-.972z"/></g><g><path fill="#6bc1ee" d="M1.018 13.498c.587-6.5 5.877-11.644 12.442-11.997V.519C6.354.875.628 6.456.037 13.498z"/></g><g><path fill="#333" d="M6.455 11.848h.66v4.556h2.182v.553H6.455z"/></g><g><path fill="#333" d="M11.224 12.257c0-.235-.159-.417-.409-.417a.406.406 0 0 0-.417.417c0 .227.166.409.401.409.266 0 .433-.182.425-.409zm-.743 4.699h.667v-3.668h-.667z"/></g><g><path fill="#333" d="M12.726 14.28c0-.378-.008-.69-.03-.992h.583l.03.59h.023c.205-.347.546-.673 1.152-.673.5 0 .88.303 1.04.735h.014c.114-.204.258-.364.41-.478.22-.166.462-.257.811-.257.485 0 1.204.318 1.204 1.59v2.162h-.65V14.88c0-.705-.259-1.13-.797-1.13-.379 0-.674.28-.788.607a1.078 1.078 0 0 0-.053.334v2.266h-.653v-2.198c0-.584-.257-1.01-.765-1.01-.417 0-.72.335-.826.668a.924.924 0 0 0-.053.327v2.213h-.652z"/></g><g><path fill="#333" d="M19.891 15.244c.016.901.592 1.273 1.26 1.273.477 0 .765-.084 1.015-.189l.114.477c-.235.106-.637.227-1.22.227-1.13 0-1.805-.743-1.805-1.849 0-1.107.652-1.979 1.72-1.979 1.198 0 1.517 1.054 1.517 1.73 0 .135-.016.241-.023.31zm1.956-.478c.008-.425-.174-1.084-.924-1.084-.675 0-.97.621-1.024 1.084z"/></g><g><path fill="#333" d="M37.653 9.833h.949v1.056c.283-.416.582-.727.896-.932.314-.207.64-.31.982-.31.256 0 .53.082.823.246l-.485.783a1.293 1.293 0 0 0-.491-.126c-.31 0-.608.127-.896.382-.287.254-.507.649-.656 1.184-.116.412-.173 1.243-.173 2.495v2.442h-.95z"/></g><g><path fill="#333" d="M60.118 6.86a.731.731 0 0 0-.535.226.742.742 0 0 0-.225.544c0 .208.075.387.225.537.15.151.328.226.535.226a.733.733 0 0 0 .542-.226.733.733 0 0 0 .225-.537.742.742 0 0 0-.225-.544.737.737 0 0 0-.542-.226zm-.46 10.193h.928v-7.22c-.465-.336-.929 0-.929 0z"/></g><g><path fill="#333" d="M76.992 10.623l-.76.617c-.632-.482-1.25-.723-1.853-.723-.384 0-.713.099-.987.298-.273.2-.41.432-.41.697 0 .235.113.458.338.671.226.216.7.471 1.422.762.879.359 1.478.704 1.793 1.035.31.337.465.715.465 1.135 0 .593-.265 1.095-.795 1.507-.53.411-1.192.617-1.986.617-.53 0-1.036-.091-1.518-.272a3.282 3.282 0 0 1-1.196-.75l.742-.663c.604.534 1.245.802 1.92.802.475 0 .878-.119 1.212-.358.332-.239.498-.52.498-.843 0-.265-.11-.502-.33-.71-.22-.203-.716-.46-1.488-.769-.83-.337-1.394-.668-1.692-.996a1.616 1.616 0 0 1-.448-1.121c0-.549.238-1.005.714-1.367.476-.363 1.078-.545 1.805-.545.846 0 1.697.326 2.554.976z"/></g><g><path fill="#333" d="M28.906 13.93c-.006-.088-.015-.175-.015-.267 0-.062.012-.117.015-.178V9.842h-.92v10.334h.92z"/></g><g><path fill="#333" d="M33.73 10.701c-.607-.703-1.337-1.054-2.19-1.054a2.51 2.51 0 0 0-1.625.568v.962c.434-.444.951-.678 1.561-.678.43 0 .826.121 1.19.363.363.241.653.58.868 1.018.215.437.322.9.322 1.386 0 .484-.108.946-.325 1.388a2.58 2.58 0 0 1-.874 1.03 2.056 2.056 0 0 1-1.17.37c-.423 0-.824-.123-1.204-.367a2.367 2.367 0 0 1-.368-.297v.916a2.633 2.633 0 0 0 1.647.562c.85 0 1.575-.353 2.176-1.058.602-.704.902-1.562.902-2.572 0-.989-.304-1.834-.91-2.537z"/></g><g><path fill="#333" d="M48.273 13.98a2.932 2.932 0 0 1-.26.704c-.223.43-.527.76-.91.994a2.37 2.37 0 0 1-1.258.35c-.458 0-.877-.116-1.26-.35a2.475 2.475 0 0 1-.91-.993 2.932 2.932 0 0 1-.26-.705h-.853c.117.67.409 1.275.875 1.812.624.717 1.427 1.076 2.41 1.076.98 0 1.78-.36 2.405-1.076a3.692 3.692 0 0 0 .875-1.813z"/></g><g><path fill="#333" d="M43.36 13.017c.055-.648.286-1.216.717-1.69.492-.543 1.082-.814 1.767-.814.682 0 1.27.27 1.765.814.432.474.664 1.042.719 1.69h.849a3.683 3.683 0 0 0-.875-2.221c-.65-.765-1.467-1.148-2.455-1.148-.991 0-1.811.385-2.461 1.155a3.673 3.673 0 0 0-.874 2.214z"/></g><g><path fill="#333" d="M69.304 15.12c-.658.613-1.076.862-1.625 1.07a2.989 2.989 0 0 1-1.073.193c-.76 0-1.402-.268-1.92-.804-.518-.537-.786-1.224-.804-2.063 0 0 .002-.324.093-.802.09-.48.472-1.161.844-1.493.51-.456 1.118-.684 1.827-.684.43 0 .84.09 1.23.272.39.182.702.42.94.717.236.297.417.692.541 1.188h-4.16v.802h5.182c-.009-.986-.275-1.81-.798-2.468-.735-.933-1.717-1.4-2.948-1.4-1.196 0-2.15.456-2.863 1.367a3.862 3.862 0 0 0-.843 2.448c0 .974.332 1.846.996 2.618.664.772 1.585 1.158 2.763 1.158.531 0 1.007-.081 1.428-.242a4.558 4.558 0 0 0 1.874-1.27z"/></g><g><path fill="#333" d="M55.435 14.004l-.553.783 1.728 2.266h1.132z"/></g><g><path fill="#333" d="M53.985 12.034l-1.752-2.387h-1.115l2.316 3.17z"/></g><g><path fill="#333" d="M55.284 13.058l2.458-3.41h-1.117l-1.9 2.64-.559.776-2.787 3.938h1.11l2.235-3.168z"/></g></g></svg>